<svg xmlns="http://www.w3.org/2000/svg" xmlns:xlink="http://www.w3.org/1999/xlink" id="Layer_1" width="42" height="42" x="0" y="0" baseProfile="tiny" version="1.1" viewBox="0 0 42 42" xml:space="preserve"><path d="M39.5,10.5v-1c0-1.47-0.48-2-2-2h-34c-1.53,0-2,0.52-2,2v1c0,1.55,0.52,2,2,2h34C39,12.5,39.5,12.02,39.5,10.5z M39.5,21.5	v-1c0-1.47-0.48-2-2-2h-34c-1.53,0-2,0.52-2,2v1c0,1.55,0.52,2,2,2h34C39,23.5,39.5,23.02,39.5,21.5z M39.5,32.5v-1	c0-1.471-0.48-2-2-2h-34c-1.53,0-2,0.52-2,2v1c0,1.55,0.52,2,2,2h34C39,34.5,39.5,34.02,39.5,32.5z"/></svg>