<svg xmlns="http://www.w3.org/2000/svg" xmlns:xlink="http://www.w3.org/1999/xlink" id="Layer_1" width="42" height="42" x="0" y="0" baseProfile="tiny" version="1.1" viewBox="-0.5 0.5 42 42" xml:space="preserve"><path d="M22.5,6.5c0-2.38-0.5-3-3-3h-16c-2.5,0-3,0.69-3,3v29c0,2.5,0.62,3,3,3h18.939L14,32.5H5.5v-24h12v20l5-4.561V6.5z M13.5,36.5h-3v-2h3V36.5z M27.84,31.54c0,0.681,0.561,1.239,1.24,1.239c0.689,0,1.25-0.561,1.25-1.239c0-0.69-0.561-1.25-1.25-1.25	C28.4,30.29,27.84,30.85,27.84,31.54z M30.45,38.561c4.05-0.891,10.28-6.199,10.28-6.199S36.1,25.17,29.9,24.4	c-0.351-0.041-1.57-0.051-1.801-0.03c-5.99,0.58-10.83,8.22-10.83,8.22s5.259,5.131,10.201,5.96	C28.05,38.67,29.85,38.67,30.45,38.561z M23.05,31.529c0-3.1,2.671-5.609,5.95-5.609s5.95,2.51,5.95,5.609	c0,3.111-2.671,5.621-5.95,5.621S23.05,34.641,23.05,31.529z"/></svg>