<svg xmlns="http://www.w3.org/2000/svg" xmlns:xlink="http://www.w3.org/1999/xlink" id="Layer_1" width="42" height="42" x="0" y="0" baseProfile="tiny" version="1.1" viewBox="0 0 42 42" xml:space="preserve"><path d="M13.5,9.53v-4c0-2.5-0.53-3-3-3l-4-0.03c-2.38,0-3,0.561-3,3v4c0,2.471,0.5,3,3,3h4C13,12.5,13.5,12,13.5,9.53z M13.5,22.529v-4c0-2.5-0.53-3-3-3l-4-0.03c-2.38,0-3,0.561-3,3v4c0,2.471,0.5,3,3,3h4C13,25.5,13.5,25,13.5,22.529z M13.5,35.529	v-4c0-2.5-0.53-3-3-3l-4-0.029c-2.38,0-3,0.561-3,3v4c0,2.471,0.5,3,3,3h4C13,38.5,13.5,38,13.5,35.529z M26.5,9.53v-4	c0-2.5-0.529-3-3-3l-4-0.03c-2.38,0-3,0.561-3,3v4c0,2.471,0.5,3,3,3h4C26,12.5,26.5,12,26.5,9.53z M26.5,22.529v-4	c0-2.5-0.529-3-3-3l-4-0.03c-2.38,0-3,0.561-3,3v4c0,2.471,0.5,3,3,3h4C26,25.5,26.5,25,26.5,22.529z M26.5,35.529v-4	c0-2.5-0.529-3-3-3l-4-0.029c-2.38,0-3,0.561-3,3v4c0,2.471,0.5,3,3,3h4C26,38.5,26.5,38,26.5,35.529z M39.5,9.53v-4	c0-2.5-0.529-3-3-3l-4-0.03c-2.38,0-3,0.561-3,3v4c0,2.471,0.5,3,3,3h4C39,12.5,39.5,12,39.5,9.53z M39.5,22.529v-4	c0-2.5-0.529-3-3-3l-4-0.03c-2.38,0-3,0.561-3,3v4c0,2.471,0.5,3,3,3h4C39,25.5,39.5,25,39.5,22.529z M39.5,35.529v-4	c0-2.5-0.529-3-3-3l-4-0.029c-2.38,0-3,0.561-3,3v4c0,2.471,0.5,3,3,3h4C39,38.5,39.5,38,39.5,35.529z"/></svg>