<svg xmlns="http://www.w3.org/2000/svg" xmlns:xlink="http://www.w3.org/1999/xlink" id="Layer_1" width="42" height="42" x="0" y="0" baseProfile="tiny" version="1.1" viewBox="0 0 42 42" xml:space="preserve"><path d="M21.83,29.38c-0.21-0.19-0.33-0.739-0.33-0.88v-11h7v-4h-7v-6h-4c-0.28,3.33-0.83,6-5,6v4h3c0,4.17-0.05,8.55-0.05,12.24	c0,1.74,1,3.24,2.409,4.039c1.32,0.681,1.681,1.051,3.051,1.131c1.51,0.07,3.17-0.01,4.46-0.16c1.14-0.18,2.37-0.65,3.2-1.13v-4.78	V28.8v0.04c0,0.37-1.021,0.61-1.7,0.86C25.73,30.08,23.02,30.57,21.83,29.38z M40.5,1.5v39h-39v-39H40.5z"/></svg>