<svg xmlns="http://www.w3.org/2000/svg" xmlns:xlink="http://www.w3.org/1999/xlink" id="Layer_1" width="42" height="42" x="0" y="0" baseProfile="tiny" version="1.1" viewBox="-0.5 0.5 42 42" xml:space="preserve"><path d="M3.5,21.501v17c0,2.49,0.561,2.999,3,2.999h28c2.609,0,3-0.471,3-2.999v-17c0-2.459-0.46-3.001-3-3.001h-28	C4.09,18.5,3.5,19.171,3.5,21.501z M23.68,28.501c0,1.41-0.91,2.599-2.17,3.019l1.99,4.98h-6l1.99-4.98	c-1.26-0.42-2.17-1.607-2.17-3.019c0-1.76,1.42-3.181,3.18-3.181S23.68,26.741,23.68,28.501z M6.5,16.501l5.41-0.029	c0.26-4.78,2.439-9.631,8.64-9.631c4.56,0,6.851,2.74,8.24,5.99l4.771-3.359c-1.939-4.631-6.431-7.91-12.811-7.971	C11.48,1.411,6.5,8.142,6.5,16.501z"/></svg>