<svg xmlns="http://www.w3.org/2000/svg" xmlns:xlink="http://www.w3.org/1999/xlink" id="Layer_1" width="42" height="42" x="0" y="0" baseProfile="tiny" version="1.1" viewBox="0 0 42 42" xml:space="preserve"><path d="M20.474,40.996c0.347,0,0.705,0.01,1.051,0c6.773-0.1,13.221-0.861,14.389-1.973c0.27-2.463,0.598-3.655-10.325-8.822	c-1.554-0.871-0.731-4.246-0.731-4.246c3.289-2.482,5.547-8.231,5.547-12.838c0-7.961-3.59-11.726-8.877-12.117h-1.052	c-5.278,0.391-8.867,4.156-8.867,12.117c0,4.607,2.248,10.354,5.539,12.838c0,0,0.82,3.375-0.725,4.246	C5.489,35.368,5.817,36.561,6.088,39.023C7.255,40.134,13.701,40.896,20.474,40.996z"/></svg>